<svg width="1024" height="88" viewBox="0 0 1024 88" fill="none" xmlns="http://www.w3.org/2000/svg">
<g clip-path="url(#clip0_2_3381)">
<path d="M35.0728 17.5214C34.9798 17.5937 33.348 18.5129 33.348 20.5578C33.348 22.9229 35.4239 23.7595 35.4859 23.7801C35.4756 23.8317 35.1554 24.9265 34.3911 26.0419C33.7095 27.0231 32.9968 28.0042 31.9124 28.0042C30.828 28.0042 30.5491 27.3742 29.2994 27.3742C28.0807 27.3742 27.6469 28.0249 26.6554 28.0249C25.6639 28.0249 24.9719 27.116 24.1767 26.0006C23.2575 24.6889 22.5139 22.6543 22.5139 20.723C22.5139 17.6246 24.5279 15.9824 26.5108 15.9824C27.5643 15.9824 28.4421 16.6744 29.1031 16.6744C29.7331 16.6744 30.7143 15.9411 31.9123 15.9411C32.3668 15.9412 33.9987 15.9826 35.0728 17.5214ZM31.3444 14.6296C31.8401 14.0409 32.1913 13.225 32.1913 12.4091C32.1913 12.2955 32.181 12.1819 32.1603 12.0889C31.3547 12.1199 30.3942 12.626 29.8158 13.2973C29.3614 13.8137 28.9379 14.6296 28.9379 15.4559C28.9379 15.5798 28.9586 15.7038 28.9689 15.7451C29.0205 15.7554 29.1032 15.7658 29.1858 15.7658C29.9088 15.7657 30.8176 15.2803 31.3444 14.6296Z" fill="white"/>
</g>
<g clip-path="url(#clip1_2_3381)">
<path fill-rule="evenodd" clip-rule="evenodd" d="M103.318 20.4627C104.32 20.4627 104.988 21.2007 105.011 22.3197H101.531C101.607 21.2007 102.31 20.4627 103.318 20.4627ZM106.072 23.1347V22.7477C106.072 20.7847 105.035 19.5717 103.33 19.5717C101.595 19.5717 100.482 20.8607 100.482 22.8477C100.482 24.8457 101.578 26.1107 103.33 26.1107C104.713 26.1107 105.697 25.4427 105.99 24.3647H104.982C104.718 24.9217 104.168 25.2207 103.353 25.2207C102.281 25.2207 101.584 24.4297 101.531 23.1817V23.1347H106.072ZM96.5249 19.6837H97.4849V20.6207H97.5789C97.7669 20.0057 98.4929 19.5717 99.3309 19.5717C99.4949 19.5717 99.7059 19.5837 99.8349 19.6017V20.6087C99.7529 20.5857 99.3899 20.5507 99.1909 20.5507C98.2299 20.5507 97.5319 21.6487 97.5319 22.0857V25.9997H96.5249V19.6837ZM92.2549 25.2027C91.0599 25.2027 90.3859 24.3357 90.3859 22.8417C90.3859 21.3417 91.0599 20.4807 92.2549 20.4807C93.4509 20.4807 94.1249 21.3417 94.1249 22.8417C94.1249 24.3357 93.4509 25.2027 92.2549 25.2027ZM92.2549 19.5717C90.4569 19.5717 89.3429 20.8087 89.3429 22.8417C89.3429 24.8687 90.4569 26.1107 92.2549 26.1107C94.0539 26.1107 95.1679 24.8687 95.1679 22.8417C95.1679 20.8087 94.0539 19.5717 92.2549 19.5717ZM86.7769 18.0967V19.7317H88.1839V20.5747H86.7769V24.1497C86.7769 24.8937 87.0589 25.2097 87.7149 25.2097C87.8969 25.2097 87.9959 25.2037 88.1839 25.1867V26.0357C87.9849 26.0707 87.7909 26.0947 87.5919 26.0947C86.2909 26.0947 85.7699 25.6137 85.7699 24.4067V20.5747H84.7499V19.7317H85.7699V18.0967H86.7769ZM78.6739 23.7907C78.8029 24.6757 79.6469 25.2377 80.8479 25.2377C81.9849 25.2377 82.8229 24.6227 82.8229 23.7847C82.8229 23.0647 82.2959 22.6077 81.1299 22.3147L80.0459 22.0327C78.5159 21.6467 77.8539 20.9547 77.8539 19.7537C77.8539 18.3177 79.0549 17.3457 80.8419 17.3457C82.4769 17.3457 83.6959 18.3177 83.7839 19.6837H82.7229C82.5769 18.8167 81.8619 18.3007 80.8069 18.3007C79.6819 18.3007 78.9379 18.8627 78.9379 19.7187C78.9379 20.3807 79.4009 20.7617 80.5669 21.0607L81.4519 21.2947C83.2039 21.7337 83.9069 22.4137 83.9069 23.6557C83.9069 25.2087 82.6819 26.1987 80.7489 26.1987C78.9559 26.1987 77.7189 25.2497 77.6079 23.7907H78.6739Z" fill="white"/>
</g>
<g clip-path="url(#clip2_2_3381)">
<path d="M155.656 25.999V19.542H155.586L152.92 25.999H152.029L149.363 19.542H149.293V25.999H148.308V17.5439H149.533L152.427 24.5986H152.521L155.416 17.5439H156.64V25.999H155.656ZM158.172 24.2294C158.172 23.0985 159.004 22.4482 160.475 22.3603L162.297 22.249V21.6748C162.297 20.8955 161.811 20.4678 160.868 20.4678C160.112 20.4678 159.585 20.7549 159.444 21.253H158.424C158.559 20.2393 159.555 19.5714 160.903 19.5714C162.444 19.5714 163.305 20.3624 163.305 21.6749V25.9991H162.344V25.0673H162.251C161.84 25.7411 161.149 26.1103 160.305 26.1103C159.081 26.1103 158.172 25.3837 158.172 24.2294ZM162.297 23.6435V23.0634L160.598 23.1747C159.637 23.2392 159.215 23.5731 159.215 24.2059C159.215 24.8504 159.76 25.2254 160.493 25.2254C161.53 25.2255 162.297 24.5458 162.297 23.6435ZM169.255 21.6162C169.091 20.9892 168.535 20.4795 167.627 20.4795C166.49 20.4795 165.775 21.3877 165.775 22.8174C165.775 24.2764 166.502 25.2022 167.627 25.2022C168.476 25.2022 169.068 24.8096 169.255 24.0948H170.275C170.093 25.255 169.15 26.1104 167.632 26.1104C165.863 26.1104 164.732 24.8272 164.732 22.8174C164.732 20.8486 165.857 19.5713 167.626 19.5713C169.162 19.5713 170.099 20.4912 170.275 21.6162H169.255Z" fill="white"/>
</g>
<path fill-rule="evenodd" clip-rule="evenodd" d="M226.207 23.7006C226.207 24.6026 225.439 25.2826 224.402 25.2826C223.67 25.2826 223.125 24.9076 223.125 24.2626C223.125 23.6306 223.547 23.2966 224.508 23.2316L226.207 23.1206V23.7006ZM224.812 19.6286C223.465 19.6286 222.469 20.2966 222.334 21.3096H223.353C223.494 20.8116 224.021 20.5246 224.777 20.5246C225.721 20.5246 226.207 20.9526 226.207 21.7316V22.3056L224.385 22.4176C222.914 22.5056 222.082 23.1556 222.082 24.2866C222.082 25.4406 222.99 26.1676 224.215 26.1676C225.059 26.1676 225.75 25.7986 226.16 25.1246H226.254V26.0556H227.215V21.7316C227.215 20.4196 226.353 19.6286 224.812 19.6286ZM231.581 25.2036C230.426 25.2036 229.735 24.3186 229.735 22.8426C229.735 21.3716 230.432 20.4806 231.581 20.4806C232.723 20.4806 233.438 21.3946 233.438 22.8426C233.438 24.3016 232.729 25.2036 231.581 25.2036ZM233.415 17.1766V20.6796H233.327C232.969 19.9886 232.225 19.5726 231.346 19.5726C229.741 19.5726 228.692 20.8616 228.692 22.8426C228.692 24.8286 229.729 26.1116 231.346 26.1116C232.219 26.1116 232.969 25.6956 233.368 24.9926H233.461V26.0006H234.422V17.1766H233.415ZM218.021 22.0456H216.158V18.4826H218.021C219.246 18.4826 219.92 19.1216 219.92 20.2816C219.92 21.4006 219.223 22.0456 218.021 22.0456ZM218.297 17.5456H215.103V26.0006H216.158V22.9826H218.285C219.873 22.9826 221.004 21.8636 221.004 20.2816C221.004 18.6706 219.896 17.5456 218.297 17.5456ZM212.233 25.9996H213.241V19.6836H212.233V25.9996ZM212.034 17.7626C212.034 17.3756 212.35 17.0586 212.737 17.0586C213.124 17.0586 213.44 17.3756 213.44 17.7626C213.44 18.1486 213.124 18.4656 212.737 18.4656C212.35 18.4656 212.034 18.1486 212.034 17.7626Z" fill="white"/>
<path fill-rule="evenodd" clip-rule="evenodd" d="M308.713 22.3206H312.193C312.17 21.2016 311.502 20.4636 310.5 20.4636C309.492 20.4636 308.789 21.2016 308.713 22.3206ZM313.172 24.3656C312.879 25.4436 311.895 26.1116 310.512 26.1116C308.76 26.1116 307.664 24.8456 307.664 22.8476C307.664 20.8616 308.777 19.5726 310.512 19.5726C312.217 19.5726 313.254 20.7856 313.254 22.7486V23.1346H308.713V23.1816C308.766 24.4296 309.463 25.2206 310.535 25.2206C311.35 25.2206 311.901 24.9226 312.164 24.3656H313.172ZM300.89 19.6836H301.851V20.6796H301.945C302.261 19.9826 302.877 19.5726 303.843 19.5726C305.261 19.5726 306.052 20.4106 306.052 21.9106V26.0006H305.045V22.1566C305.045 21.0196 304.564 20.4806 303.556 20.4806C302.548 20.4806 301.898 21.1546 301.898 22.2616V26.0006H300.89V19.6836ZM298.391 22.8416C298.391 21.3416 297.717 20.4806 296.522 20.4806C295.326 20.4806 294.652 21.3416 294.652 22.8416C294.652 24.3366 295.326 25.2036 296.522 25.2036C297.717 25.2036 298.391 24.3366 298.391 22.8416ZM293.609 22.8416C293.609 20.8086 294.723 19.5726 296.522 19.5726C298.32 19.5726 299.434 20.8086 299.434 22.8416C299.434 24.8696 298.32 26.1116 296.522 26.1116C294.723 26.1116 293.609 24.8696 293.609 22.8416ZM286.973 17.1756H287.981V20.6796H288.074C288.391 19.9826 289.053 19.5726 290.02 19.5726C291.356 19.5726 292.199 20.4276 292.199 21.9106V26.0006H291.192V22.1566C291.192 21.0376 290.688 20.4806 289.733 20.4806C288.602 20.4806 287.981 21.1956 287.981 22.2616V26.0006H286.973V17.1756ZM280.958 22.0456H282.821C284.023 22.0456 284.72 21.4006 284.72 20.2816C284.72 19.1216 284.046 18.4826 282.821 18.4826H280.958V22.0456ZM283.097 17.5456C284.696 17.5456 285.804 18.6706 285.804 20.2816C285.804 21.8636 284.673 22.9826 283.085 22.9826H280.958V26.0006H279.903V17.5456H283.097ZM276.983 25.9996H277.991V19.6836H276.983V25.9996ZM276.783 17.7616C276.783 17.3756 277.1 17.0586 277.486 17.0586C277.873 17.0586 278.19 17.3756 278.19 17.7616C278.19 18.1486 277.873 18.4656 277.486 18.4656C277.1 18.4656 276.783 18.1486 276.783 17.7616Z" fill="white"/>
<path fill-rule="evenodd" clip-rule="evenodd" d="M383.732 17.1758H384.74V20.6798H384.834C385.15 19.9828 385.812 19.5718 386.779 19.5718C388.115 19.5718 388.959 20.4278 388.959 21.9098V25.9998H387.951V22.1558C387.951 21.0368 387.447 20.4808 386.492 20.4808C385.361 20.4808 384.74 21.1958 384.74 22.2618V25.9998H383.732V17.1758ZM381.312 21.6168C381.148 20.9898 380.591 20.4808 379.683 20.4808C378.546 20.4808 377.831 21.3888 377.831 22.8188C377.831 24.2778 378.558 25.2028 379.683 25.2028C380.532 25.2028 381.124 24.8108 381.312 24.0958H382.331C382.149 25.2558 381.206 26.1118 379.689 26.1118C377.919 26.1118 376.788 24.8278 376.788 22.8188C376.788 20.8498 377.913 19.5718 379.683 19.5718C381.218 19.5718 382.155 20.4918 382.331 21.6168H381.312ZM374.779 18.0488V19.6838H376.186V20.5278H374.779V24.1018C374.779 24.8458 375.061 25.1618 375.717 25.1618C375.899 25.1618 375.998 25.1558 376.186 25.1388V25.9888C375.986 26.0238 375.793 26.0468 375.594 26.0468C374.293 26.0468 373.772 25.5668 373.772 24.3598V20.5278H372.752V19.6838H373.772V18.0488H374.779ZM370.579 23.6448V23.0648L368.88 23.1758C367.919 23.2398 367.497 23.5738 367.497 24.2068C367.497 24.8518 368.042 25.2268 368.774 25.2268C369.812 25.2268 370.579 24.5468 370.579 23.6448ZM366.454 24.2308C366.454 23.0998 367.286 22.4488 368.757 22.3618L370.579 22.2498V21.6758C370.579 20.8968 370.093 20.4688 369.149 20.4688C368.394 20.4688 367.866 20.7558 367.726 21.2538H366.706C366.841 20.2398 367.837 19.5718 369.185 19.5718C370.726 19.5718 371.587 20.3638 371.587 21.6758V25.9998H370.626V25.0688H370.532C370.122 25.7418 369.431 26.1118 368.587 26.1118C367.362 26.1118 366.454 25.3848 366.454 24.2308ZM358.77 25.9998H357.774L355.471 17.5448H356.572L358.254 24.4178H358.324L360.217 17.5448H361.283L363.176 24.4178H363.246L364.928 17.5448H366.029L363.727 25.9998H362.731L360.785 19.3258H360.715L358.77 25.9998Z" fill="white"/>
<g clip-path="url(#clip3_2_3381)">
<path fill-rule="evenodd" clip-rule="evenodd" d="M442.207 19.6836H443.168V20.6206H443.262C443.449 20.0056 444.176 19.5726 445.014 19.5726C445.178 19.5726 445.389 19.5836 445.518 19.6016V20.6096C445.436 20.5856 445.072 20.5506 444.873 20.5506C443.912 20.5506 443.215 21.1956 443.215 22.0856V25.9996H442.207V19.6836ZM470.342 19.5726C471.666 19.5726 472.586 20.2286 472.721 21.2656H471.725C471.59 20.7616 471.098 20.4276 470.336 20.4276C469.586 20.4276 469 20.8086 469 21.3706C469 21.8046 469.352 22.0746 470.096 22.2556L471.069 22.4906C472.258 22.7776 472.832 23.2926 472.832 24.2016C472.832 25.3316 471.737 26.1116 470.301 26.1116C468.895 26.1116 467.928 25.4376 467.817 24.3886H468.854C469.024 24.9216 469.528 25.2616 470.336 25.2616C471.186 25.2616 471.795 24.8576 471.795 24.2776C471.795 23.8436 471.467 23.5506 470.793 23.3866L469.709 23.1226C468.526 22.8356 467.987 22.3266 467.987 21.4126C467.987 20.3636 469 19.5726 470.342 19.5726ZM463.677 25.2036C462.522 25.2036 461.831 24.3186 461.831 22.8416C461.831 21.3706 462.528 20.4806 463.677 20.4806C464.819 20.4806 465.534 21.3946 465.534 22.8416C465.534 24.3006 464.825 25.2036 463.677 25.2036ZM465.511 17.1756V20.6796H465.423C465.065 19.9886 464.321 19.5726 463.442 19.5726C461.837 19.5726 460.788 20.8616 460.788 22.8416C460.788 24.8286 461.825 26.1116 463.442 26.1116C464.315 26.1116 465.065 25.6956 465.464 24.9926H465.558V25.9996H466.519V17.1756H465.511ZM456.51 25.2036C455.315 25.2036 454.641 24.3356 454.641 22.8416C454.641 21.3416 455.315 20.4806 456.51 20.4806C457.706 20.4806 458.379 21.3416 458.379 22.8416C458.379 24.3356 457.706 25.2036 456.51 25.2036ZM456.51 19.5726C454.711 19.5726 453.598 20.8086 453.598 22.8416C453.598 24.8696 454.711 26.1116 456.51 26.1116C458.309 26.1116 459.422 24.8696 459.422 22.8416C459.422 20.8086 458.309 19.5726 456.51 19.5726ZM439.439 25.9996H440.447V19.6836H439.439V25.9996ZM439.24 17.7616C439.24 17.3746 439.557 17.0586 439.943 17.0586C440.33 17.0586 440.646 17.3746 440.646 17.7616C440.646 18.1486 440.33 18.4646 439.943 18.4646C439.557 18.4646 439.24 18.1486 439.24 17.7616ZM433.103 22.6836L434.427 18.9106H434.52L435.845 22.6836H433.103ZM434.995 17.5446H433.952L430.835 25.9996H431.942L432.792 23.5796H436.155L437.005 25.9996H438.112L434.995 17.5446ZM449.863 22.0446H447.999V18.4826H449.863C451.087 18.4826 451.761 19.1216 451.761 20.2816C451.761 21.4006 451.064 22.0446 449.863 22.0446ZM450.138 17.5446H446.945V25.9996H447.999V22.9826H450.126C451.714 22.9826 452.845 21.8636 452.845 20.2816C452.845 18.6696 451.738 17.5446 450.138 17.5446Z" fill="white"/>
</g>
<g clip-path="url(#clip4_2_3381)">
<path d="M518.61 26.0001V18.4942H515.885V17.545H522.389V18.4942H519.665V26.0001H518.61ZM526.341 26.0001L523.224 17.545H524.331L526.816 24.6348H526.91L529.394 17.545H530.501L527.384 26.0001H526.341ZM540.322 25.1563C539.602 25.7891 538.611 26.1583 537.586 26.1583C535.904 26.1583 534.727 25.1622 534.727 23.7442C534.727 22.7422 535.271 21.9805 536.402 21.3829C536.479 21.3477 536.637 21.2657 536.73 21.2188C535.951 20.3985 535.67 19.8536 535.67 19.2383C535.67 18.1543 536.59 17.3457 537.826 17.3457C539.074 17.3457 539.982 18.1426 539.982 19.25C539.982 20.1172 539.461 20.75 538.154 21.4355L540.269 23.7089C540.533 23.1816 540.668 22.4901 540.668 21.4355V21.289H541.652V21.4413C541.652 22.7538 541.418 23.7089 540.955 24.4237L542.426 26.0001H541.102L540.322 25.1563ZM535.781 23.6739C535.781 24.6231 536.549 25.2677 537.68 25.2677C538.447 25.2677 539.238 24.963 539.701 24.4767L537.311 21.8634C537.246 21.8868 537.094 21.963 537.012 22.004C536.197 22.4259 535.781 23.0118 535.781 23.6739ZM538.992 19.2853C538.992 18.6291 538.518 18.1837 537.832 18.1837C537.158 18.1837 536.678 18.6407 536.678 19.297C536.678 19.7658 536.918 20.1759 537.586 20.838C538.617 20.3106 538.992 19.8888 538.992 19.2853ZM552.51 26.0001V22.1505H547.869V26.0001H546.814V17.545H547.869V21.2012H552.51V17.545H553.564V26.0001H552.51ZM555.155 22.8419C555.155 20.8087 556.269 19.5724 558.067 19.5724C559.866 19.5724 560.979 20.8087 560.979 22.8419C560.979 24.8692 559.866 26.1114 558.067 26.1114C556.269 26.1114 555.155 24.8692 555.155 22.8419ZM559.936 22.8419C559.936 21.3419 559.263 20.4806 558.067 20.4806C556.872 20.4806 556.198 21.3419 556.198 22.8419C556.198 24.336 556.872 25.2032 558.067 25.2032C559.263 25.2032 559.936 24.336 559.936 22.8419ZM562.442 19.6837H563.403V20.6798H563.497C563.784 19.9767 564.416 19.5724 565.26 19.5724C566.116 19.5724 566.713 20.0236 567.006 20.6798H567.1C567.44 20.0118 568.161 19.5724 569.034 19.5724C570.323 19.5724 571.044 20.3107 571.044 21.6349V26.0001H570.036V21.8692C570.036 20.9376 569.596 20.4805 568.706 20.4805C567.827 20.4805 567.241 21.1367 567.241 21.9395V26.0001H566.233V21.711C566.233 20.961 565.712 20.4805 564.915 20.4805C564.088 20.4805 563.45 21.1953 563.45 22.086V26.0001H562.442V19.6837H562.442ZM577.955 24.3653C577.662 25.4434 576.677 26.1114 575.294 26.1114C573.542 26.1114 572.447 24.8458 572.447 22.8477C572.447 20.8614 573.56 19.5723 575.294 19.5723C576.999 19.5723 578.037 20.7852 578.037 22.7481V23.1348H573.496V23.1817C573.548 24.4297 574.246 25.2208 575.318 25.2208C576.132 25.2208 576.683 24.922 576.947 24.3653H577.955ZM573.496 22.3204H576.976C576.953 21.2013 576.285 20.463 575.283 20.463C574.275 20.463 573.572 21.2013 573.496 22.3204Z" fill="white"/>
</g>
<g clip-path="url(#clip5_2_3381)">
<path d="M628.874 21.7699C628.874 24.4699 627.414 26.1999 624.994 26.1999C622.564 26.1999 621.114 24.4799 621.114 21.7699C621.114 19.0499 622.604 17.3499 624.994 17.3499C627.394 17.3399 628.874 19.0599 628.874 21.7699ZM622.204 21.7699C622.204 23.8699 623.244 25.2299 624.994 25.2299C626.724 25.2299 627.784 23.8699 627.784 21.7699C627.784 19.6499 626.714 18.3199 624.994 18.3199C623.274 18.3199 622.204 19.6499 622.204 21.7699ZM630.574 19.6799H631.534V20.6799H631.624C631.944 19.9799 632.554 19.5699 633.524 19.5699C634.944 19.5699 635.734 20.4099 635.734 21.9099V25.9999H634.724V22.1599C634.724 21.0199 634.244 20.4799 633.234 20.4799C632.224 20.4799 631.574 21.1499 631.574 22.2599V25.9999H630.564V19.6799H630.574ZM637.634 17.1699H638.644V25.9999H637.634V17.1699ZM640.684 28.2499V27.3899C640.804 27.4099 640.964 27.4199 641.104 27.4199C641.684 27.4199 642.004 27.1399 642.264 26.3799L642.384 25.9999L640.044 19.6799H641.134L642.864 24.8799H642.954L644.684 19.6799H645.754L643.284 26.3799C642.744 27.8399 642.244 28.2799 641.124 28.2799C641.004 28.2799 640.824 28.2699 640.684 28.2499ZM650.184 22.8399C650.184 20.8099 651.294 19.5699 653.094 19.5699C654.894 19.5699 656.004 20.8099 656.004 22.8399C656.004 24.8699 654.894 26.1099 653.094 26.1099C651.294 26.1099 650.184 24.8699 650.184 22.8399ZM654.964 22.8399C654.964 21.3399 654.294 20.4799 653.094 20.4799C651.894 20.4799 651.224 21.3399 651.224 22.8399C651.224 24.3299 651.894 25.1999 653.094 25.1999C654.294 25.1999 654.964 24.3299 654.964 22.8399ZM657.594 19.6799H658.554V20.6799H658.644C658.964 19.9799 659.574 19.5699 660.544 19.5699C661.964 19.5699 662.754 20.4099 662.754 21.9099V25.9999H661.744V22.1599C661.744 21.0199 661.264 20.4799 660.254 20.4799C659.244 20.4799 658.594 21.1499 658.594 22.2599V25.9999H657.584L657.594 19.6799ZM672.754 23.5799H669.394L668.544 25.9999H667.434L670.554 17.5399H671.594L674.714 25.9999H673.604L672.754 23.5799ZM669.704 22.6799H672.444L671.124 18.9099H671.034L669.704 22.6799ZM681.794 22.8399C681.794 24.8099 680.744 26.1099 679.144 26.1099C678.244 26.1099 677.514 25.7199 677.174 25.0499H677.084V28.1099H676.074V19.6799H677.034V20.7299H677.124C677.524 19.9999 678.284 19.5599 679.144 19.5599C680.754 19.5699 681.794 20.8499 681.794 22.8399ZM680.754 22.8399C680.754 21.3599 680.064 20.4799 678.904 20.4799C677.764 20.4799 677.044 21.3899 677.044 22.8399C677.044 24.2899 677.764 25.1999 678.904 25.1999C680.064 25.1999 680.754 24.3199 680.754 22.8399ZM689.104 22.8399C689.104 24.8099 688.054 26.1099 686.454 26.1099C685.554 26.1099 684.824 25.7199 684.484 25.0499H684.384V28.1099H683.374V19.6799H684.334V20.7299H684.424C684.824 19.9999 685.584 19.5599 686.444 19.5599C688.064 19.5699 689.104 20.8499 689.104 22.8399ZM688.064 22.8399C688.064 21.3599 687.374 20.4799 686.214 20.4799C685.074 20.4799 684.354 21.3899 684.354 22.8399C684.354 24.2899 685.074 25.1999 686.214 25.1999C687.374 25.1999 688.064 24.3199 688.064 22.8399ZM690.754 17.1699H691.764V25.9999H690.754V17.1699ZM698.904 24.3599C698.614 25.4399 697.624 26.1099 696.244 26.1099C694.494 26.1099 693.394 24.8399 693.394 22.8499C693.394 20.8599 694.504 19.5699 696.244 19.5699C697.954 19.5699 698.984 20.7799 698.984 22.7499V23.1399H694.444V23.1899C694.494 24.4399 695.194 25.2299 696.264 25.2299C697.074 25.2299 697.634 24.9299 697.894 24.3699L698.904 24.3599ZM694.444 22.3199H697.924C697.904 21.1999 697.234 20.4599 696.234 20.4599C695.224 20.4599 694.524 21.1999 694.444 22.3199Z" fill="white"/>
</g>
<g clip-path="url(#clip6_2_3381)">
<path d="M746.387 23.5713H743.024L742.174 25.9912H741.067L744.184 17.5361H745.227L748.344 25.9912H747.237L746.387 23.5713ZM743.334 22.6748H746.076L744.752 18.9014H744.658L743.334 22.6748ZM753.433 21.6084C753.269 20.9814 752.712 20.4717 751.804 20.4717C750.667 20.4717 749.952 21.3799 749.952 22.8096C749.952 24.2686 750.679 25.1944 751.804 25.1944C752.654 25.1944 753.245 24.8018 753.433 24.087H754.452C754.271 25.2472 753.327 26.1026 751.81 26.1026C750.04 26.1026 748.909 24.8194 748.909 22.8096C748.909 20.8408 750.034 19.5635 751.804 19.5635C753.339 19.5635 754.277 20.4834 754.452 21.6084H753.433ZM760.028 21.6084C759.863 20.9814 759.307 20.4717 758.399 20.4717C757.262 20.4717 756.547 21.3799 756.547 22.8096C756.547 24.2686 757.274 25.1944 758.399 25.1944C759.248 25.1944 759.84 24.8018 760.028 24.087H761.047C760.865 25.2472 759.922 26.1026 758.404 26.1026C756.635 26.1026 755.504 24.8194 755.504 22.8096C755.504 20.8408 756.629 19.5635 758.399 19.5635C759.934 19.5635 760.871 20.4834 761.047 21.6084H760.028ZM767.607 24.3564C767.314 25.4345 766.33 26.1025 764.947 26.1025C763.195 26.1025 762.099 24.8369 762.099 22.8388C762.099 20.8525 763.213 19.5634 764.947 19.5634C766.652 19.5634 767.689 20.7763 767.689 22.7392V23.1259H763.148V23.1728C763.201 24.4208 763.898 25.2119 764.97 25.2119C765.785 25.2119 766.336 24.9131 766.599 24.3564H767.607ZM763.148 22.3115H766.629C766.605 21.1924 765.937 20.4541 764.935 20.4541C763.927 20.4541 763.224 21.1924 763.148 22.3115ZM771.36 19.5635C772.684 19.5635 773.604 20.2197 773.739 21.2569H772.743C772.608 20.753 772.116 20.419 771.354 20.419C770.604 20.419 770.018 20.7999 770.018 21.3624C770.018 21.796 770.37 22.0655 771.114 22.2472L772.087 22.4816C773.276 22.7687 773.85 23.2843 773.85 24.1925C773.85 25.3234 772.755 26.1027 771.319 26.1027C769.913 26.1027 768.946 25.4289 768.835 24.38H769.872C770.042 24.9132 770.546 25.253 771.354 25.253C772.204 25.253 772.813 24.8487 772.813 24.2686C772.813 23.835 772.485 23.542 771.811 23.378L770.727 23.1143C769.544 22.8272 769.005 22.3174 769.005 21.4034C769.005 20.3545 770.018 19.5635 771.36 19.5635ZM777.404 19.5635C778.728 19.5635 779.648 20.2197 779.783 21.2569H778.787C778.652 20.753 778.16 20.419 777.398 20.419C776.648 20.419 776.062 20.7999 776.062 21.3624C776.062 21.796 776.414 22.0655 777.158 22.2472L778.131 22.4816C779.32 22.7687 779.894 23.2843 779.894 24.1925C779.894 25.3234 778.799 26.1027 777.363 26.1027C775.957 26.1027 774.99 25.4289 774.879 24.38H775.916C776.086 24.9132 776.59 25.253 777.398 25.253C778.248 25.253 778.857 24.8487 778.857 24.2686C778.857 23.835 778.529 23.542 777.855 23.378L776.771 23.1143C775.588 22.8272 775.049 22.3174 775.049 21.4034C775.049 20.3545 776.062 19.5635 777.404 19.5635ZM781.04 22.833C781.04 20.7998 782.153 19.5635 783.952 19.5635C785.751 19.5635 786.864 20.7998 786.864 22.833C786.864 24.8603 785.751 26.1025 783.952 26.1025C782.153 26.1025 781.04 24.8603 781.04 22.833ZM785.821 22.833C785.821 21.333 785.147 20.4717 783.952 20.4717C782.757 20.4717 782.083 21.333 782.083 22.833C782.083 24.3271 782.757 25.1943 783.952 25.1943C785.147 25.1943 785.821 24.3271 785.821 22.833ZM788.326 19.6748H789.287V20.6123H789.381C789.569 19.9971 790.295 19.5635 791.133 19.5635C791.297 19.5635 791.508 19.5752 791.637 19.5928V20.6006C791.555 20.5772 791.192 20.542 790.993 20.542C790.032 20.542 789.334 21.1865 789.334 22.0772V25.9913H788.327V19.6748H788.326ZM792.601 17.7529C792.601 17.3662 792.917 17.0498 793.304 17.0498C793.691 17.0498 794.007 17.3662 794.007 17.7529C794.007 18.1396 793.691 18.456 793.304 18.456C792.917 18.456 792.601 18.1396 792.601 17.7529ZM792.8 19.6748H793.808V25.9912H792.8V19.6748ZM800.801 24.3564C800.508 25.4345 799.524 26.1025 798.141 26.1025C796.389 26.1025 795.293 24.8369 795.293 22.8388C795.293 20.8525 796.406 19.5634 798.141 19.5634C799.846 19.5634 800.883 20.7763 800.883 22.7392V23.1259H796.342V23.1728C796.395 24.4208 797.092 25.2119 798.164 25.2119C798.979 25.2119 799.53 24.9131 799.793 24.3564H800.801ZM796.342 22.3115H799.823C799.799 21.1924 799.131 20.4541 798.129 20.4541C797.121 20.4541 796.418 21.1924 796.342 22.3115ZM804.554 19.5635C805.878 19.5635 806.798 20.2197 806.933 21.2569H805.937C805.802 20.753 805.31 20.419 804.548 20.419C803.798 20.419 803.212 20.7999 803.212 21.3624C803.212 21.796 803.564 22.0655 804.308 22.2472L805.281 22.4816C806.47 22.7687 807.044 23.2843 807.044 24.1925C807.044 25.3234 805.949 26.1027 804.513 26.1027C803.107 26.1027 802.14 25.4289 802.029 24.38H803.066C803.236 24.9132 803.74 25.253 804.548 25.253C805.398 25.253 806.007 24.8487 806.007 24.2686C806.007 23.835 805.679 23.542 805.005 23.378L803.921 23.1143C802.738 22.8272 802.198 22.3174 802.198 21.4034C802.198 20.3545 803.212 19.5635 804.554 19.5635Z" fill="white"/>
</g>
<g clip-path="url(#clip7_2_3381)">
<path fill-rule="evenodd" clip-rule="evenodd" d="M890.589 18.0341V19.6691H891.995V20.5131H890.589V24.0871C890.589 24.8311 890.87 25.1471 891.526 25.1471C891.708 25.1471 891.808 25.1411 891.995 25.1241V25.9731C891.796 26.0091 891.603 26.0321 891.403 26.0321C890.103 26.0321 889.581 25.5521 889.581 24.3451V20.5131H888.562V19.6691H889.581V18.0341H890.589ZM884.458 19.6691H885.419V20.6061H885.512C885.7 19.9911 886.426 19.5571 887.264 19.5571C887.428 19.5571 887.639 19.5691 887.768 19.5871V20.5951C887.686 20.5711 887.323 20.5361 887.124 20.5361C886.163 20.5361 885.465 21.1801 885.465 22.0711V25.9851H884.458V19.6691ZM881.995 22.8271C881.995 21.3271 881.321 20.4661 880.126 20.4661C878.931 20.4661 878.257 21.3271 878.257 22.8271C878.257 24.3211 878.931 25.1881 880.126 25.1881C881.321 25.1881 881.995 24.3211 881.995 22.8271ZM877.214 22.8271C877.214 20.7941 878.327 19.5571 880.126 19.5571C881.925 19.5571 883.038 20.7941 883.038 22.8271C883.038 24.8541 881.925 26.0971 880.126 26.0971C878.327 26.0971 877.214 24.8541 877.214 22.8271ZM875.106 22.8271C875.106 21.3501 874.414 20.4661 873.26 20.4661C872.117 20.4661 871.397 21.3741 871.397 22.8271C871.397 24.2741 872.117 25.1881 873.254 25.1881C874.414 25.1881 875.106 24.3041 875.106 22.8271ZM876.149 22.8271C876.149 24.8021 875.1 26.0971 873.494 26.0971C872.592 26.0971 871.865 25.7041 871.52 25.0361H871.426V28.0951H870.418V19.6691H871.379V20.7231H871.473C871.877 19.9971 872.633 19.5571 873.494 19.5571C875.106 19.5571 876.149 20.8411 876.149 22.8271ZM868.101 22.8271C868.101 21.3501 867.41 20.4661 866.256 20.4661C865.113 20.4661 864.392 21.3741 864.392 22.8271C864.392 24.2741 865.113 25.1881 866.25 25.1881C867.41 25.1881 868.101 24.3041 868.101 22.8271ZM869.144 22.8271C869.144 24.8021 868.095 26.0971 866.49 26.0971C865.588 26.0971 864.861 25.7041 864.515 25.0361H864.422V28.0951H863.414V19.6691H864.375V20.7231H864.468C864.873 19.9971 865.629 19.5571 866.49 19.5571C868.101 19.5571 869.144 20.8411 869.144 22.8271ZM861.499 25.9851H860.538V24.9951H860.444C860.128 25.6981 859.454 26.0971 858.487 26.0971C857.069 26.0971 856.331 25.2531 856.331 23.7591V19.6691H857.339V23.5131C857.339 24.6491 857.761 25.1771 858.769 25.1771C859.882 25.1771 860.491 24.5141 860.491 23.4071V19.6691H861.499V25.9851ZM849.809 23.7761C849.938 24.6611 850.781 25.2231 851.983 25.2231C853.119 25.2231 853.957 24.6081 853.957 23.7701C853.957 23.0501 853.43 22.5931 852.264 22.3001L851.18 22.0181C849.651 21.6321 848.988 20.9401 848.988 19.7391C848.988 18.3041 850.19 17.3311 851.977 17.3311C853.611 17.3311 854.83 18.3041 854.918 19.6691H853.858C853.711 18.8021 852.996 18.2861 851.942 18.2861C850.817 18.2861 850.072 18.8481 850.072 19.7041C850.072 20.3661 850.535 20.7471 851.701 21.0461L852.586 21.2801C854.338 21.7201 855.041 22.3991 855.041 23.6411C855.041 25.1941 853.817 26.1841 851.883 26.1841C850.09 26.1841 848.854 25.2351 848.742 23.7761H849.809Z" fill="white"/>
</g>
<g clip-path="url(#clip8_2_3381)">
<path d="M947.199 27.3428L943.699 23.8428C944.581 22.763 945.014 21.3857 944.909 19.9956C944.804 18.6055 944.169 17.3088 943.135 16.3736C942.101 15.4383 940.748 14.936 939.354 14.9704C937.96 15.0048 936.633 15.5733 935.647 16.5584C934.66 17.5436 934.09 18.87 934.054 20.2636C934.018 21.6572 934.518 23.0114 935.452 24.0464C936.386 25.0814 937.682 25.7181 939.072 25.8248C940.462 25.9315 941.84 25.5001 942.921 24.6198L946.421 28.1198C946.472 28.1709 946.533 28.2114 946.599 28.2391C946.666 28.2667 946.738 28.281 946.81 28.281C946.882 28.281 946.954 28.2667 947.02 28.2391C947.087 28.2114 947.148 28.1709 947.199 28.1198C947.25 28.0687 947.291 28.0081 947.318 27.9414C947.346 27.8746 947.36 27.8031 947.36 27.7308C947.36 27.6586 947.346 27.5871 947.318 27.5203C947.291 27.4536 947.25 27.3929 947.199 27.3418V27.3428ZM935.178 20.4178C935.178 19.5637 935.432 18.7287 935.906 18.0186C936.381 17.3085 937.056 16.7551 937.845 16.4283C938.634 16.1016 939.502 16.0162 940.34 16.1829C941.178 16.3497 941.947 16.7611 942.551 17.3652C943.155 17.9693 943.566 18.7388 943.733 19.5766C943.9 20.4144 943.814 21.2827 943.487 22.0719C943.16 22.861 942.607 23.5355 941.896 24.01C941.186 24.4846 940.351 24.7378 939.497 24.7378C938.352 24.7368 937.254 24.2813 936.444 23.4713C935.634 22.6613 935.179 21.5632 935.178 20.4178Z" fill="white"/>
<path d="M947.199 71.5928L943.699 68.0928C944.581 67.013 945.014 65.6357 944.909 64.2456C944.804 62.8555 944.169 61.5588 943.135 60.6236C942.101 59.6883 940.748 59.186 939.354 59.2204C937.96 59.2548 936.633 59.8233 935.647 60.8084C934.66 61.7936 934.09 63.12 934.054 64.5136C934.018 65.9072 934.518 67.2614 935.452 68.2964C936.386 69.3314 937.682 69.9681 939.072 70.0748C940.462 70.1815 941.84 69.7501 942.921 68.8698L946.421 72.3698C946.524 72.473 946.664 72.531 946.81 72.531C946.956 72.531 947.096 72.473 947.199 72.3698C947.302 72.2667 947.36 72.1267 947.36 71.9808C947.36 71.8349 947.302 71.695 947.199 71.5918V71.5928ZM935.178 64.6678C935.178 63.8137 935.432 62.9787 935.906 62.2686C936.381 61.5585 937.056 61.0051 937.845 60.6783C938.634 60.3516 939.502 60.2662 940.34 60.4329C941.178 60.5997 941.947 61.0111 942.551 61.6152C943.155 62.2193 943.566 62.9888 943.733 63.8266C943.9 64.6644 943.814 65.5327 943.487 66.3219C943.16 67.111 942.607 67.7855 941.896 68.26C941.186 68.7346 940.351 68.9878 939.497 68.9878C938.352 68.9868 937.254 68.5313 936.444 67.7213C935.634 66.9114 935.179 65.8132 935.178 64.6678Z" fill="#86868B"/>
</g>
<g clip-path="url(#clip9_2_3381)">
<path fill-rule="evenodd" clip-rule="evenodd" d="M1000.97 25.9C1000.97 26.5 1000.47 27 999.869 27H991.069C990.469 27 989.969 26.5 989.969 25.9V18C989.969 17.5 990.469 17 991.069 17H999.969C1000.57 17 1001.07 17.5 1001.07 18.1V25.9H1000.97ZM995.469 14C996.669 14 997.569 14.9 997.769 16H993.169C993.369 14.9 994.269 14 995.469 14ZM999.869 16H998.769C998.569 14.3 997.169 13 995.469 13C993.769 13 992.369 14.3 992.169 16H991.069C989.869 16 988.969 16.9 988.969 18.1V26C988.969 27.1 989.869 28 991.069 28H999.969C1001.07 28 1002.07 27.1 1002.07 25.9V18C1001.97 16.9 1001.07 16 999.869 16Z" fill="white"/>
</g>
<defs>
<clipPath id="clip0_2_3381">
<rect width="14" height="44" fill="white" transform="translate(22)"/>
</clipPath>
<clipPath id="clip1_2_3381">
<rect width="30" height="44" fill="white" transform="translate(76.75)"/>
</clipPath>
<clipPath id="clip2_2_3381">
<rect width="23" height="44" fill="white" transform="translate(147.5)"/>
</clipPath>
<clipPath id="clip3_2_3381">
<rect width="43" height="44" fill="white" transform="translate(430.492)"/>
</clipPath>
<clipPath id="clip4_2_3381">
<rect width="65" height="44" fill="white" transform="translate(514.234)"/>
</clipPath>
<clipPath id="clip5_2_3381">
<rect width="80" height="44" fill="white" transform="translate(619.984)"/>
</clipPath>
<clipPath id="clip6_2_3381">
<rect width="67" height="44" fill="white" transform="translate(740.727)"/>
</clipPath>
<clipPath id="clip7_2_3381">
<rect width="44" height="44" fill="white" transform="translate(848.469)"/>
</clipPath>
<clipPath id="clip8_2_3381">
<rect width="15" height="88" fill="white" transform="translate(933.219)"/>
</clipPath>
<clipPath id="clip9_2_3381">
<rect width="13" height="44" fill="white" transform="translate(988.969)"/>
</clipPath>
</defs>
</svg>
